<svg xmlns="http://www.w3.org/2000/svg" xmlns:xlink="http://www.w3.org/1999/xlink" width="238.731" height="66.415" viewBox="0 0 238.731 66.415"><defs><style>.a,.c{fill:#fff;}.b,.c{stroke:rgba(0,0,0,0);stroke-miterlimit:10;}.b{fill:url(#a);}</style><linearGradient id="a" x1="0.5" x2="0.5" y2="1" gradientUnits="objectBoundingBox"><stop offset="0" stop-color="#f05139"/><stop offset="1" stop-color="#f08639"/></linearGradient></defs><g transform="translate(-581.019 -652.832)"><g transform="translate(52)"><path class="a" d="M-2047.74-653.747l.609-3.3h.6c.023,2.379,1.242,3.632,2.883,3.632a1.592,1.592,0,0,0,1.793-1.524,2.113,2.113,0,0,0-1.277-1.91l-1.078-.656a3.839,3.839,0,0,1-2.215-3.4c0-2.4,2.168-3.961,5.683-3.961a7.387,7.387,0,0,1,3.7.9l-.562,3.094h-.609c-.083-1.911-.985-3.176-2.555-3.176-1.031,0-1.594.539-1.594,1.383-.012.738.387,1.254,1.36,1.851l1.09.668a3.722,3.722,0,0,1,2.109,3.41c0,2.3-1.992,4.149-5.847,4.149A7.218,7.218,0,0,1-2047.74-653.747Zm-16.594-4a6.911,6.911,0,0,1,7.02-7.124c2.484,0,4.008,1.02,4.008,2.6,0,1.9-1.77,2.848-5.825,3.949l-.691.2c.082,2.624,1.289,3.621,2.895,3.621a3.355,3.355,0,0,0,2.426-.985l-.141.68a5.6,5.6,0,0,1-4.711,2.215A4.831,4.831,0,0,1-2064.334-657.742Zm4.523-1.078.492-.175a4.162,4.162,0,0,0,2.754-3.9c0-.68-.234-1.137-.832-1.137C-2058.814-664.035-2059.717-661.492-2059.81-658.821Zm-59.777,1.078a6.911,6.911,0,0,1,7.019-7.124c2.485,0,4.009,1.02,4.009,2.6,0,1.9-1.77,2.848-5.825,3.949l-.691.2c.082,2.624,1.289,3.621,2.895,3.621a3.352,3.352,0,0,0,2.425-.985l-.14.68a5.6,5.6,0,0,1-4.71,2.215A4.831,4.831,0,0,1-2119.587-657.742Zm4.523-1.078.492-.175a4.162,4.162,0,0,0,2.754-3.9c0-.68-.235-1.137-.833-1.137C-2114.068-664.035-2114.97-661.492-2115.064-658.821Zm-34.172.8c0-3.844,2.895-6.844,7.266-6.844a5.249,5.249,0,0,1,5.59,5.425c0,3.891-2.93,6.856-7.266,6.856A5.252,5.252,0,0,1-2149.236-658.023Zm4.36,1.98c0,1.759.457,2.59,1.3,2.59,1.793,0,2.813-4.981,2.824-7.957.012-1.769-.445-2.59-1.3-2.59C-2143.845-664-2144.865-659.031-2144.876-656.043Zm121.078.27-.257-.75-.516,1c-1.043,2.18-1.828,2.93-3.036,2.93a1.822,1.822,0,0,1-1.886-1.887,1.9,1.9,0,0,1,1.911-1.91,1.845,1.845,0,0,1,1.828,1.441c.2-.292.422-.656.668-1.078l.761-1.265-1.676-4.922c-.246-.75-.433-.972-1.09-1.16l-.456-.117.129-.656,5.039-.609,1.324,3.879.527-1.055c1.043-2.156,1.828-2.93,3.035-2.93a1.831,1.831,0,0,1,1.9,1.886,1.888,1.888,0,0,1-1.911,1.91,1.845,1.845,0,0,1-1.828-1.441c-.211.3-.434.656-.68,1.09l-.785,1.312,1.172,3.457c.468,1.407.96,1.9,1.629,1.9a1.444,1.444,0,0,0,.949-.34l-.129.668a3.574,3.574,0,0,1-3.293,1.829C-2022.193-652.6-2023.1-653.7-2023.8-655.773Zm-12.093-.094,1.336-6.258c.152-.727.023-.973-.527-1.184l-.551-.175.129-.644,5.918-.644-1.886,8.813c-.188.9.07,1.277.644,1.277a1.765,1.765,0,0,0,1.055-.364l-.141.668a4.785,4.785,0,0,1-3.8,1.734C-2035.541-652.645-2036.372-653.652-2035.892-655.867Zm-35.895,0,1.1-5.262c.258-1.2-.058-1.886-.926-1.886-.96,0-1.875,1.02-2.2,2.484l-1.652,7.7h-4.394l1.98-9.293c.152-.727.023-.973-.516-1.184l-.562-.175.14-.644,5.8-.644-.679,3.246a4.6,4.6,0,0,1,4.476-3.34c2.344,0,3.446,1.394,2.872,4.113l-1.031,4.793c-.188.9.07,1.277.644,1.277a1.763,1.763,0,0,0,1.055-.364l-.14.668a4.771,4.771,0,0,1-3.8,1.734C-2071.435-652.645-2072.255-653.652-2071.787-655.867Zm-15.246,0,1.335-6.258c.152-.727.023-.973-.527-1.184l-.551-.175.13-.644,5.917-.644-1.886,8.813c-.188.9.07,1.277.645,1.277a1.765,1.765,0,0,0,1.055-.364l-.141.668a4.785,4.785,0,0,1-3.8,1.734C-2086.682-652.645-2087.513-653.652-2087.032-655.867Zm-7.606,0,1.1-5.262c.258-1.2-.059-1.886-.925-1.886-.961,0-1.875,1.02-2.2,2.484l-1.652,7.7h-4.395l1.98-9.293c.153-.727.024-.973-.515-1.184l-.562-.175.14-.644,5.8-.644-.68,3.246a4.6,4.6,0,0,1,4.477-3.34c2.344,0,3.445,1.394,2.871,4.113l-1.031,4.793c-.187.9.07,1.277.644,1.277a1.761,1.761,0,0,0,1.055-.364l-.14.668a4.769,4.769,0,0,1-3.8,1.734C-2094.287-652.645-2095.107-653.652-2094.638-655.867Zm-32.4,0,1.1-5.262c.258-1.2-.058-1.886-.926-1.886-.961,0-1.875,1.02-2.2,2.484l-1.653,7.7h-4.395l1.981-9.293c.152-.727.023-.973-.516-1.184l-.562-.175.14-.644,5.8-.644-.68,3.246a4.6,4.6,0,0,1,4.477-3.34c2.344,0,3.445,1.394,2.871,4.113l-1.031,4.793c-.188.9.07,1.277.644,1.277a1.765,1.765,0,0,0,1.055-.364l-.141.668a4.769,4.769,0,0,1-3.8,1.734C-2126.689-652.645-2127.509-653.652-2127.04-655.867ZM-2033.6-668.1a2.255,2.255,0,0,1,2.309-2.2,2.04,2.04,0,0,1,2.086,2.051,2.238,2.238,0,0,1-2.285,2.18A2.04,2.04,0,0,1-2033.6-668.1Zm-51.141,0a2.255,2.255,0,0,1,2.309-2.2,2.039,2.039,0,0,1,2.086,2.051,2.238,2.238,0,0,1-2.285,2.18A2.041,2.041,0,0,1-2084.736-668.1Zm-30.252-8.092,1.574-8.537h1.543c.061,6.146,3.209,9.385,7.448,9.385,2.724,0,4.6-1.544,4.631-3.936,0-2-.847-3.421-3.3-4.935l-2.785-1.695c-3.542-2.12-5.721-4.784-5.721-8.78,0-6.206,5.6-10.233,14.683-10.233a19.053,19.053,0,0,1,9.566,2.331l-1.453,7.993h-1.574c-.212-4.935-2.543-8.2-6.6-8.2-2.664,0-4.117,1.392-4.117,3.572-.031,1.907,1,3.239,3.512,4.784l2.815,1.725c3.512,2.059,5.449,4.753,5.449,8.81,0,5.933-5.146,10.716-15.106,10.716C-2108.751-673.2-2113.051-674.619-2114.988-676.193Zm-25.733-1.211-4.238,3.572h-7.206l8.2-38.538c.424-1.877.091-2.513-1.363-3.058l-1.453-.454.363-1.665,15.228-1.453-4.783,21.828c1.634-5.056,5.388-7.751,9.839-7.751,5.419,0,8.961,4.33,8.961,11.5,0,11.231-6.57,20.222-16.045,20.222C-2137.421-673.2-2140.054-675.255-2140.72-677.4Zm4.238-16.469-3.239,15.137a2.964,2.964,0,0,0,3.057,1.967c5.359,0,7.9-11.02,7.9-17.983,0-3.875-1.03-5.388-2.785-5.388C-2133.576-700.14-2135.483-697.869-2136.482-693.873Zm-52.888,9.142c0-11.2,6.569-20.192,16.045-20.192,4.208,0,6.842,2.059,7.508,4.208l4.208-3.6h7.236l-4.814,22.4c-.454,2.331.212,3.3,1.665,3.3a4.5,4.5,0,0,0,2.725-.939l-.333,1.726a12.244,12.244,0,0,1-9.748,4.48c-3.845,0-5.873-1.938-5.6-6.025a15.527,15.527,0,0,1,.3-2.3c-1.6,5.479-5.541,8.476-10.2,8.476C-2185.8-673.2-2189.37-677.525-2189.37-684.731Zm11.595,1.363c0,3.875,1.03,5.359,2.815,5.359,2.029,0,3.936-2.271,4.935-6.236l3.209-15.137a2.954,2.954,0,0,0-3.028-2C-2175.2-701.381-2177.744-690.361-2177.775-683.368Zm-30.879,1.7,6.57-30.7c.393-1.877.03-2.513-1.393-3.058l-1.423-.454.333-1.665L-2189.31-719l-7.932,37.085c-.484,2.331.182,3.3,1.635,3.3a4.425,4.425,0,0,0,2.724-.939l-.333,1.726a12.388,12.388,0,0,1-9.839,4.48C-2207.746-673.348-2209.9-675.951-2208.654-681.673Z" transform="translate(2783.345 1371.832)"/></g><g transform="translate(581.78 659.613)"><path class="b" d="M11.193,27.559h12.92l-6.46,7.4ZM0,17.48l7.4-6.46V23.94Zm27.82-6.46,7.4,6.46-7.4,6.461ZM11.193,7.4,17.653,0l6.46,7.4Z"/></g><path class="c" d="M0,0H11.1V10.544H0Z" transform="translate(593.884 671.903)"/></g></svg>