<svg xmlns="http://www.w3.org/2000/svg" xmlns:xlink="http://www.w3.org/1999/xlink" width="210.096" height="58.423" viewBox="0 0 210.096 58.423"><defs><style>.a,.b{stroke:rgba(0,0,0,0);stroke-miterlimit:10;}.a{fill:url(#a);}</style><linearGradient id="a" x1="0.5" x2="0.5" y2="1" gradientUnits="objectBoundingBox"><stop offset="0" stop-color="#f05139"/><stop offset="1" stop-color="#f08639"/></linearGradient></defs><g transform="translate(-581.019 -652.832)"><g transform="translate(581.78 652.832)"><g transform="translate(39.203)"><path d="M141.856,57.4l.536-2.906h.526c.021,2.093,1.093,3.2,2.536,3.2a1.4,1.4,0,0,0,1.577-1.34,1.858,1.858,0,0,0-1.123-1.68l-.948-.577A3.377,3.377,0,0,1,143.01,51.1c0-2.114,1.907-3.484,5-3.484a6.5,6.5,0,0,1,3.258.793l-.495,2.722h-.536c-.073-1.681-.866-2.794-2.248-2.794-.907,0-1.4.474-1.4,1.217-.01.649.34,1.1,1.2,1.629l.959.587a3.274,3.274,0,0,1,1.855,3c0,2.02-1.752,3.65-5.144,3.65A6.349,6.349,0,0,1,141.856,57.4Zm-14.6-3.515a6.079,6.079,0,0,1,6.175-6.267c2.185,0,3.526.9,3.526,2.288,0,1.67-1.557,2.5-5.124,3.474l-.608.176c.072,2.309,1.134,3.185,2.546,3.185a2.951,2.951,0,0,0,2.134-.866l-.124.6a4.928,4.928,0,0,1-4.144,1.948A4.25,4.25,0,0,1,127.259,53.887Zm3.979-.949.433-.154a3.662,3.662,0,0,0,2.422-3.433c0-.6-.206-1-.731-1C132.114,48.351,131.32,50.588,131.238,52.938Zm-52.584.949a6.079,6.079,0,0,1,6.174-6.267c2.186,0,3.526.9,3.526,2.288,0,1.67-1.557,2.5-5.124,3.474l-.608.176c.072,2.309,1.134,3.185,2.546,3.185a2.949,2.949,0,0,0,2.133-.866l-.123.6a4.928,4.928,0,0,1-4.144,1.948A4.25,4.25,0,0,1,78.654,53.887Zm3.979-.949.433-.154a3.661,3.661,0,0,0,2.423-3.433c0-.6-.207-1-.732-1C83.509,48.351,82.715,50.588,82.633,52.938Zm-30.06.7c0-3.381,2.546-6.02,6.391-6.02a4.617,4.617,0,0,1,4.917,4.772c0,3.423-2.577,6.031-6.392,6.031A4.62,4.62,0,0,1,52.573,53.639Zm3.835,1.742c0,1.547.4,2.279,1.144,2.279,1.577,0,2.474-4.381,2.484-7,.01-1.556-.391-2.279-1.144-2.279C57.315,48.382,56.418,52.753,56.408,55.381Zm106.509.238-.226-.659-.454.876c-.917,1.917-1.608,2.578-2.67,2.578a1.6,1.6,0,0,1-1.66-1.66,1.668,1.668,0,0,1,1.681-1.68A1.623,1.623,0,0,1,161.2,56.34c.175-.257.371-.577.587-.948l.67-1.113-1.474-4.33c-.216-.659-.381-.855-.959-1.021l-.4-.1.113-.577,4.433-.536,1.164,3.412.464-.928c.917-1.9,1.608-2.577,2.67-2.577a1.611,1.611,0,0,1,1.67,1.659,1.661,1.661,0,0,1-1.681,1.68,1.623,1.623,0,0,1-1.608-1.267c-.185.268-.382.577-.6.959l-.69,1.154,1.031,3.041c.412,1.237.845,1.67,1.433,1.67a1.27,1.27,0,0,0,.834-.3l-.113.587a3.143,3.143,0,0,1-2.9,1.609C164.329,58.413,163.535,57.444,162.916,55.619Zm-10.638-.082,1.175-5.5c.134-.64.02-.856-.464-1.042l-.484-.154.113-.567,5.206-.567-1.659,7.752c-.165.793.062,1.123.567,1.123a1.553,1.553,0,0,0,.928-.32l-.124.587a4.209,4.209,0,0,1-3.339,1.526C152.587,58.371,151.855,57.485,152.278,55.536Zm-31.576,0,.969-4.629c.227-1.051-.051-1.659-.815-1.659-.845,0-1.649.9-1.938,2.185l-1.453,6.773H113.6l1.742-8.174c.134-.64.021-.856-.454-1.042l-.495-.154.123-.567,5.1-.567-.6,2.856a4.047,4.047,0,0,1,3.937-2.938c2.063,0,3.032,1.226,2.526,3.618l-.907,4.217c-.166.793.062,1.123.567,1.123a1.551,1.551,0,0,0,.928-.32l-.123.587a4.2,4.2,0,0,1-3.34,1.526C121.012,58.371,120.29,57.485,120.7,55.536Zm-13.411,0,1.175-5.5c.134-.64.021-.856-.464-1.042l-.484-.154.114-.567,5.205-.567-1.659,7.752c-.165.793.062,1.123.567,1.123a1.553,1.553,0,0,0,.928-.32l-.124.587a4.209,4.209,0,0,1-3.339,1.526C107.6,58.371,106.868,57.485,107.291,55.536Zm-6.691,0,.969-4.629c.227-1.051-.052-1.659-.814-1.659-.846,0-1.65.9-1.938,2.185l-1.453,6.773H93.5l1.742-8.174c.135-.64.021-.856-.453-1.042l-.495-.154.123-.567,5.1-.567-.6,2.856a4.047,4.047,0,0,1,3.938-2.938c2.061,0,3.031,1.226,2.525,3.618l-.907,4.217c-.165.793.062,1.123.567,1.123a1.549,1.549,0,0,0,.928-.32l-.124.587a4.2,4.2,0,0,1-3.34,1.526C100.91,58.371,100.188,57.485,100.6,55.536Zm-28.5,0,.969-4.629c.227-1.051-.051-1.659-.815-1.659-.846,0-1.649.9-1.938,2.185L68.86,58.206H64.995l1.743-8.174c.134-.64.021-.856-.454-1.042l-.495-.154.124-.567,5.1-.567-.6,2.856a4.049,4.049,0,0,1,3.938-2.938c2.061,0,3.031,1.226,2.526,3.618l-.907,4.217c-.166.793.062,1.123.567,1.123a1.553,1.553,0,0,0,.928-.32l-.124.587a4.2,4.2,0,0,1-3.339,1.526C72.406,58.371,71.685,57.485,72.1,55.536Zm82.2-10.762a1.984,1.984,0,0,1,2.031-1.938,1.794,1.794,0,0,1,1.835,1.8,1.968,1.968,0,0,1-2.01,1.918A1.8,1.8,0,0,1,154.3,44.774Zm-44.987,0a1.984,1.984,0,0,1,2.031-1.938,1.794,1.794,0,0,1,1.835,1.8,1.969,1.969,0,0,1-2.01,1.918A1.8,1.8,0,0,1,109.312,44.774ZM82.7,37.656l1.385-7.51h1.358c.054,5.407,2.823,8.256,6.551,8.256,2.4,0,4.048-1.359,4.074-3.462,0-1.758-.745-3.009-2.9-4.341l-2.45-1.491c-3.115-1.864-5.033-4.208-5.033-7.723,0-5.46,4.927-9,12.916-9a16.761,16.761,0,0,1,8.415,2.051l-1.278,7.031h-1.385c-.187-4.341-2.237-7.217-5.805-7.217-2.344,0-3.622,1.225-3.622,3.142-.027,1.678.879,2.849,3.089,4.208l2.476,1.518c3.089,1.811,4.794,4.181,4.794,7.75,0,5.219-4.527,9.427-13.289,9.427C88.186,40.292,84.4,39.04,82.7,37.656ZM60.064,36.591l-3.728,3.142H50l7.217-33.9c.373-1.651.08-2.21-1.2-2.69l-1.278-.4.319-1.465L68.453,0,64.245,19.2c1.438-4.448,4.74-6.818,8.655-6.818,4.767,0,7.883,3.809,7.883,10.12,0,9.88-5.78,17.789-14.114,17.789C62.966,40.292,60.65,38.482,60.064,36.591ZM63.792,22.1,60.943,35.419a2.607,2.607,0,0,0,2.689,1.731c4.714,0,6.951-9.694,6.951-15.819,0-3.408-.906-4.74-2.45-4.74C66.348,16.591,64.671,18.588,63.792,22.1ZM17.268,30.146c0-9.853,5.779-17.763,14.115-17.763,3.7,0,6.019,1.811,6.6,3.7l3.7-3.169h6.365L43.819,32.623c-.4,2.05.187,2.9,1.464,2.9a3.957,3.957,0,0,0,2.4-.826l-.293,1.518a10.771,10.771,0,0,1-8.575,3.941c-3.382,0-5.167-1.7-4.927-5.3a13.647,13.647,0,0,1,.266-2.024c-1.412,4.82-4.874,7.456-8.975,7.456C20.411,40.292,17.268,36.484,17.268,30.146Zm10.2,1.2c0,3.409.906,4.714,2.476,4.714,1.785,0,3.462-2,4.341-5.486l2.823-13.316A2.6,2.6,0,0,0,34.445,15.5C29.731,15.5,27.495,25.193,27.468,31.344ZM.3,32.836l5.779-27c.346-1.651.026-2.21-1.226-2.69l-1.252-.4L3.9,1.279,17.321,0,10.344,32.623c-.426,2.05.16,2.9,1.438,2.9a3.893,3.893,0,0,0,2.4-.826l-.293,1.518a10.9,10.9,0,0,1-8.655,3.941C1.1,40.159-.787,37.869.3,32.836Z" transform="translate(0)"/></g><g transform="translate(0 5.965)"><path class="a" d="M9.846,24.243H21.212L15.53,30.754ZM0,15.376,6.511,9.694V21.06ZM24.472,9.694l6.51,5.682-6.51,5.683ZM9.846,6.511,15.529,0l5.683,6.511Z"/></g></g><path class="b" d="M0,0H9.763V9.276H0Z" transform="translate(592.428 669.608)"/></g></svg>